<mxfile host="app.diagrams.net" agent="Mozilla/5.0 (Windows NT 10.0; Win64; x64) AppleWebKit/537.36 (KHTML, like Gecko) Chrome/134.0.0.0 YaBrowser/25.4.0.0 Safari/537.36" version="27.0.6">
  <diagram name="Страница — 1" id="tM3OnPTDEdw7xIzxtySK">
    <mxGraphModel dx="1208" dy="701" grid="0" gridSize="10" guides="1" tooltips="1" connect="1" arrows="1" fold="1" page="1" pageScale="1" pageWidth="1169" pageHeight="827" math="0" shadow="0">
      <root>
        <mxCell id="0" />
        <mxCell id="1" parent="0" />
        <mxCell id="WkcwOZB6-lNgY68ppt4C-10" style="edgeStyle=orthogonalEdgeStyle;rounded=0;orthogonalLoop=1;jettySize=auto;html=1;entryX=0.5;entryY=1;entryDx=0;entryDy=0;align=center;" parent="1" source="WkcwOZB6-lNgY68ppt4C-1" target="WkcwOZB6-lNgY68ppt4C-8" edge="1">
          <mxGeometry relative="1" as="geometry" />
        </mxCell>
        <mxCell id="WkcwOZB6-lNgY68ppt4C-1" value="&lt;span&gt;&lt;font style=&quot;font-size: 20px;&quot;&gt;φ&lt;/font&gt;(&lt;span style=&quot;font-family: Consolas, &amp;quot;Courier New&amp;quot;, monospace; font-size: 16.8px; white-space: pre; color: rgb(209, 154, 102);&quot;&gt;ЧЛВК_ИД&lt;/span&gt;&lt;span style=&quot;font-family: Consolas, &amp;quot;Courier New&amp;quot;, monospace; font-size: 16.8px; white-space: pre;&quot;&gt;&lt;font color=&quot;#abb2bf&quot;&gt; &lt;/font&gt;&lt;/span&gt;&lt;span style=&quot;font-family: Consolas, &amp;quot;Courier New&amp;quot;, monospace; font-size: 16.8px; white-space: pre; color: rgb(86, 182, 194);&quot;&gt;&amp;lt;&lt;/span&gt;&lt;span style=&quot;color: rgb(171, 178, 191); font-family: Consolas, &amp;quot;Courier New&amp;quot;, monospace; font-size: 16.8px; white-space: pre;&quot;&gt; &lt;/span&gt;&lt;span style=&quot;font-family: Consolas, &amp;quot;Courier New&amp;quot;, monospace; font-size: 16.8px; white-space: pre; color: rgb(209, 154, 102);&quot;&gt;163249&lt;/span&gt;&lt;span style=&quot;color: light-dark(rgb(0, 0, 0), rgb(255, 255, 255));&quot;&gt;)&lt;/span&gt;&lt;/span&gt;" style="text;whiteSpace=wrap;html=1;align=center;" parent="1" vertex="1">
          <mxGeometry x="445" y="280" width="200" height="40" as="geometry" />
        </mxCell>
        <mxCell id="WkcwOZB6-lNgY68ppt4C-6" style="edgeStyle=orthogonalEdgeStyle;rounded=0;orthogonalLoop=1;jettySize=auto;html=1;entryX=0.5;entryY=1;entryDx=0;entryDy=0;align=center;" parent="1" source="WkcwOZB6-lNgY68ppt4C-2" target="WkcwOZB6-lNgY68ppt4C-1" edge="1">
          <mxGeometry relative="1" as="geometry" />
        </mxCell>
        <mxCell id="WkcwOZB6-lNgY68ppt4C-2" value="&lt;span&gt;&lt;font style=&quot;font-size: 20px;&quot;&gt;φ&lt;/font&gt;(&lt;span style=&quot;font-family: Consolas, &amp;quot;Courier New&amp;quot;, monospace; font-size: 16.8px; white-space: pre; color: rgb(209, 154, 102);&quot;&gt;ЧЛВК_ИД&lt;/span&gt;&lt;span style=&quot;font-family: Consolas, &amp;quot;Courier New&amp;quot;, monospace; font-size: 16.8px; white-space: pre;&quot;&gt;&lt;font color=&quot;#abb2bf&quot;&gt; &lt;/font&gt;&lt;/span&gt;&lt;span style=&quot;font-family: Consolas, &amp;quot;Courier New&amp;quot;, monospace; font-size: 16.8px; white-space: pre; color: rgb(86, 182, 194);&quot;&gt;&amp;gt;&lt;/span&gt;&lt;span style=&quot;color: rgb(171, 178, 191); font-family: Consolas, &amp;quot;Courier New&amp;quot;, monospace; font-size: 16.8px; white-space: pre;&quot;&gt; &lt;/span&gt;&lt;span style=&quot;font-family: Consolas, &amp;quot;Courier New&amp;quot;, monospace; font-size: 16.8px; white-space: pre; color: rgb(209, 154, 102);&quot;&gt;117219&lt;/span&gt;&lt;span style=&quot;color: light-dark(rgb(0, 0, 0), rgb(255, 255, 255));&quot;&gt;)&lt;/span&gt;&lt;/span&gt;" style="text;whiteSpace=wrap;html=1;align=center;" parent="1" vertex="1">
          <mxGeometry x="445" y="360" width="200" height="40" as="geometry" />
        </mxCell>
        <mxCell id="WkcwOZB6-lNgY68ppt4C-7" style="edgeStyle=orthogonalEdgeStyle;rounded=0;orthogonalLoop=1;jettySize=auto;html=1;entryX=0.5;entryY=1;entryDx=0;entryDy=0;align=center;" parent="1" source="WkcwOZB6-lNgY68ppt4C-3" target="WkcwOZB6-lNgY68ppt4C-2" edge="1">
          <mxGeometry relative="1" as="geometry" />
        </mxCell>
        <mxCell id="WkcwOZB6-lNgY68ppt4C-3" value="&lt;div style=&quot;color: rgb(171, 178, 191); background-color: rgb(35, 39, 46); font-family: Consolas, &amp;quot;Courier New&amp;quot;, monospace; font-size: 16.8px; line-height: 22px; white-space-collapse: preserve;&quot;&gt;Н_ВЕДОМОСТИ&lt;/div&gt;" style="text;html=1;align=center;verticalAlign=middle;resizable=0;points=[];autosize=1;strokeColor=none;fillColor=none;" parent="1" vertex="1">
          <mxGeometry x="480" y="440" width="130" height="40" as="geometry" />
        </mxCell>
        <mxCell id="WkcwOZB6-lNgY68ppt4C-24" style="edgeStyle=orthogonalEdgeStyle;rounded=0;orthogonalLoop=1;jettySize=auto;html=1;entryX=0.5;entryY=1;entryDx=0;entryDy=0;align=center;" parent="1" source="WkcwOZB6-lNgY68ppt4C-8" target="WkcwOZB6-lNgY68ppt4C-23" edge="1">
          <mxGeometry relative="1" as="geometry" />
        </mxCell>
        <mxCell id="WkcwOZB6-lNgY68ppt4C-8" value="&lt;span&gt;&lt;font style=&quot;font-size: 20px;&quot;&gt;⋈&lt;/font&gt;&lt;font style=&quot;&quot;&gt;(&lt;/font&gt;&lt;/span&gt;&lt;span style=&quot;background-color: rgb(35, 39, 46); color: rgb(171, 178, 191); font-family: Consolas, &amp;quot;Courier New&amp;quot;, monospace; font-size: 16.8px; white-space: pre;&quot;&gt;Н_ТИПЫ_ВЕДОМОСТЕЙ&lt;/span&gt;&lt;span style=&quot;background-color: transparent; color: light-dark(rgb(0, 0, 0), rgb(255, 255, 255));&quot;&gt;&lt;span style=&quot;color: rgb(171, 178, 191); font-family: Consolas, &amp;quot;Courier New&amp;quot;, monospace; font-size: 16.8px; white-space: pre;&quot;&gt;.&lt;/span&gt;&lt;span style=&quot;font-family: Consolas, &amp;quot;Courier New&amp;quot;, monospace; font-size: 16.8px; white-space: pre; color: rgb(209, 154, 102);&quot;&gt;ИД&lt;/span&gt;&lt;span style=&quot;color: rgb(171, 178, 191); font-family: Consolas, &amp;quot;Courier New&amp;quot;, monospace; font-size: 16.8px; white-space: pre;&quot;&gt; &lt;/span&gt;&lt;span style=&quot;font-family: Consolas, &amp;quot;Courier New&amp;quot;, monospace; font-size: 16.8px; white-space: pre; color: rgb(86, 182, 194);&quot;&gt;=&lt;/span&gt;&lt;span style=&quot;color: rgb(171, 178, 191); font-family: Consolas, &amp;quot;Courier New&amp;quot;, monospace; font-size: 16.8px; white-space: pre;&quot;&gt; &lt;/span&gt;&lt;/span&gt;&lt;span style=&quot;background-color: rgb(35, 39, 46); color: rgb(171, 178, 191); font-family: Consolas, &amp;quot;Courier New&amp;quot;, monospace; font-size: 16.8px; white-space: pre;&quot;&gt;Н_ВЕДОМОСТИ&lt;/span&gt;&lt;span style=&quot;background-color: transparent; color: light-dark(rgb(0, 0, 0), rgb(255, 255, 255));&quot;&gt;&lt;span style=&quot;color: rgb(171, 178, 191); font-family: Consolas, &amp;quot;Courier New&amp;quot;, monospace; font-size: 16.8px; white-space: pre;&quot;&gt;.&lt;/span&gt;&lt;span style=&quot;font-family: Consolas, &amp;quot;Courier New&amp;quot;, monospace; font-size: 16.8px; white-space: pre; color: rgb(209, 154, 102);&quot;&gt;ТВ_ИД&lt;/span&gt;&lt;/span&gt;&lt;span style=&quot;background-color: transparent; color: light-dark(rgb(0, 0, 0), rgb(255, 255, 255));&quot;&gt;)&lt;/span&gt;" style="text;whiteSpace=wrap;html=1;align=center;" parent="1" vertex="1">
          <mxGeometry x="160" y="160" width="405" height="40" as="geometry" />
        </mxCell>
        <mxCell id="WkcwOZB6-lNgY68ppt4C-15" style="edgeStyle=orthogonalEdgeStyle;rounded=0;orthogonalLoop=1;jettySize=auto;html=1;entryX=0.5;entryY=1;entryDx=0;entryDy=0;align=center;" parent="1" source="WkcwOZB6-lNgY68ppt4C-12" target="WkcwOZB6-lNgY68ppt4C-8" edge="1">
          <mxGeometry relative="1" as="geometry" />
        </mxCell>
        <mxCell id="WkcwOZB6-lNgY68ppt4C-12" value="&lt;span&gt;&lt;font style=&quot;font-size: 20px;&quot;&gt;φ&lt;/font&gt;(&lt;span style=&quot;font-family: Consolas, &amp;quot;Courier New&amp;quot;, monospace; font-size: 16.8px; white-space: pre; color: rgb(209, 154, 102);&quot;&gt;НАИМЕНОВАНИЕ&lt;/span&gt;&lt;span style=&quot;color: rgb(171, 178, 191); font-family: Consolas, &amp;quot;Courier New&amp;quot;, monospace; font-size: 16.8px; white-space: pre;&quot;&gt; &lt;/span&gt;&lt;span style=&quot;font-family: Consolas, &amp;quot;Courier New&amp;quot;, monospace; font-size: 16.8px; white-space: pre; color: rgb(86, 182, 194);&quot;&gt;&amp;lt;&lt;/span&gt;&lt;span style=&quot;color: rgb(171, 178, 191); font-family: Consolas, &amp;quot;Courier New&amp;quot;, monospace; font-size: 16.8px; white-space: pre;&quot;&gt; &lt;/span&gt;&lt;span style=&quot;font-family: Consolas, &amp;quot;Courier New&amp;quot;, monospace; font-size: 16.8px; white-space: pre; color: rgb(152, 195, 121);&quot;&gt;&#39;Экзаменационный лист&#39;&lt;/span&gt;&lt;span style=&quot;color: light-dark(rgb(0, 0, 0), rgb(255, 255, 255));&quot;&gt;)&lt;/span&gt;&lt;/span&gt;" style="text;whiteSpace=wrap;html=1;align=center;" parent="1" vertex="1">
          <mxGeometry x="20" y="280" width="370" height="40" as="geometry" />
        </mxCell>
        <mxCell id="WkcwOZB6-lNgY68ppt4C-13" style="edgeStyle=orthogonalEdgeStyle;rounded=0;orthogonalLoop=1;jettySize=auto;html=1;entryX=0.5;entryY=1;entryDx=0;entryDy=0;align=center;" parent="1" source="WkcwOZB6-lNgY68ppt4C-14" target="WkcwOZB6-lNgY68ppt4C-12" edge="1">
          <mxGeometry relative="1" as="geometry" />
        </mxCell>
        <mxCell id="WkcwOZB6-lNgY68ppt4C-14" value="&lt;div style=&quot;color: rgb(171, 178, 191); background-color: rgb(35, 39, 46); font-family: Consolas, &amp;quot;Courier New&amp;quot;, monospace; font-size: 16.8px; line-height: 22px; white-space-collapse: preserve;&quot;&gt;&lt;div style=&quot;line-height: 22px;&quot;&gt;Н_ТИПЫ_ВЕДОМОСТЕЙ&lt;/div&gt;&lt;/div&gt;" style="text;html=1;align=center;verticalAlign=middle;resizable=0;points=[];autosize=1;strokeColor=none;fillColor=none;" parent="1" vertex="1">
          <mxGeometry x="115" y="360" width="180" height="40" as="geometry" />
        </mxCell>
        <mxCell id="WkcwOZB6-lNgY68ppt4C-23" value="&lt;font style=&quot;text-wrap-mode: nowrap; font-size: 20px;&quot;&gt;π&lt;/font&gt;&lt;span style=&quot;text-wrap-mode: nowrap;&quot;&gt;(&lt;/span&gt;&lt;span style=&quot;white-space: pre; color: rgb(171, 178, 191); font-family: Consolas, &amp;quot;Courier New&amp;quot;, monospace; font-size: 16.8px;&quot;&gt;&lt;span style=&quot;background-color: rgb(35, 39, 46);&quot;&gt;Н_ТИПЫ_ВЕДОМОСТЕЙ&lt;/span&gt;.&lt;/span&gt;&lt;span style=&quot;white-space: pre; font-family: Consolas, &amp;quot;Courier New&amp;quot;, monospace; font-size: 16.8px; color: rgb(209, 154, 102);&quot;&gt;НАИМЕНОВАНИЕ, &lt;/span&gt;&lt;span style=&quot;color: rgb(171, 178, 191); font-family: Consolas, &amp;quot;Courier New&amp;quot;, monospace; font-size: 16.8px; white-space: pre; background-color: rgb(35, 39, 46);&quot;&gt;Н_ВЕДОМОСТИ&lt;/span&gt;&lt;span style=&quot;white-space: pre; color: rgb(171, 178, 191); font-family: Consolas, &amp;quot;Courier New&amp;quot;, monospace; font-size: 16.8px;&quot;&gt;.&lt;/span&gt;&lt;span style=&quot;white-space: pre; font-family: Consolas, &amp;quot;Courier New&amp;quot;, monospace; font-size: 16.8px; color: rgb(209, 154, 102);&quot;&gt;ЧЛВК_ИД&lt;/span&gt;&lt;span style=&quot;white-space: pre; font-family: Consolas, &amp;quot;Courier New&amp;quot;, monospace; font-size: 16.8px;&quot;&gt;)&lt;/span&gt;" style="text;whiteSpace=wrap;html=1;align=center;" parent="1" vertex="1">
          <mxGeometry x="108.75" y="50" width="507.5" height="40" as="geometry" />
        </mxCell>
        <mxCell id="WkcwOZB6-lNgY68ppt4C-42" style="edgeStyle=orthogonalEdgeStyle;rounded=0;orthogonalLoop=1;jettySize=auto;html=1;entryX=0.5;entryY=1;entryDx=0;entryDy=0;align=center;" parent="1" source="WkcwOZB6-lNgY68ppt4C-26" target="WkcwOZB6-lNgY68ppt4C-34" edge="1">
          <mxGeometry relative="1" as="geometry" />
        </mxCell>
        <mxCell id="WkcwOZB6-lNgY68ppt4C-26" value="&lt;span&gt;&lt;font style=&quot;font-size: 20px;&quot;&gt;φ&lt;/font&gt;(&lt;/span&gt;&lt;span style=&quot;color: rgb(171, 178, 191); font-family: Consolas, &amp;quot;Courier New&amp;quot;, monospace; font-size: 16.8px; white-space: pre; background-color: rgb(35, 39, 46);&quot;&gt;Н_ВЕДОМОСТИ&lt;/span&gt;&lt;span style=&quot;white-space: pre; color: rgb(171, 178, 191); font-family: Consolas, &amp;quot;Courier New&amp;quot;, monospace; font-size: 16.8px;&quot;&gt;.&lt;/span&gt;&lt;span style=&quot;white-space: pre; font-family: Consolas, &amp;quot;Courier New&amp;quot;, monospace; font-size: 16.8px; color: rgb(209, 154, 102);&quot;&gt;ЧЛВК_ИД &lt;/span&gt;&lt;span&gt;&lt;span style=&quot;font-family: Consolas, &amp;quot;Courier New&amp;quot;, monospace; font-size: 16.8px; white-space: pre; color: rgb(86, 182, 194);&quot;&gt;&amp;lt;&lt;/span&gt;&lt;span style=&quot;color: rgb(171, 178, 191); font-family: Consolas, &amp;quot;Courier New&amp;quot;, monospace; font-size: 16.8px; white-space: pre;&quot;&gt; &lt;/span&gt;&lt;span style=&quot;font-family: Consolas, &amp;quot;Courier New&amp;quot;, monospace; font-size: 16.8px; white-space: pre; color: rgb(209, 154, 102);&quot;&gt;163249&lt;/span&gt;&lt;span style=&quot;color: light-dark(rgb(0, 0, 0), rgb(255, 255, 255));&quot;&gt;)&lt;/span&gt;&lt;/span&gt;" style="text;whiteSpace=wrap;html=1;align=center;" parent="1" vertex="1">
          <mxGeometry x="887.5" y="210" width="285" height="40" as="geometry" />
        </mxCell>
        <mxCell id="WkcwOZB6-lNgY68ppt4C-41" style="edgeStyle=orthogonalEdgeStyle;rounded=0;orthogonalLoop=1;jettySize=auto;html=1;entryX=0.5;entryY=1;entryDx=0;entryDy=0;align=center;" parent="1" source="WkcwOZB6-lNgY68ppt4C-28" target="WkcwOZB6-lNgY68ppt4C-26" edge="1">
          <mxGeometry relative="1" as="geometry" />
        </mxCell>
        <mxCell id="WkcwOZB6-lNgY68ppt4C-28" value="&lt;span&gt;&lt;font style=&quot;font-size: 20px;&quot;&gt;φ&lt;/font&gt;(&lt;/span&gt;&lt;span style=&quot;color: rgb(171, 178, 191); font-family: Consolas, &amp;quot;Courier New&amp;quot;, monospace; font-size: 16.8px; white-space: pre; background-color: rgb(35, 39, 46);&quot;&gt;Н_ВЕДОМОСТИ&lt;/span&gt;&lt;span style=&quot;white-space: pre; color: rgb(171, 178, 191); font-family: Consolas, &amp;quot;Courier New&amp;quot;, monospace; font-size: 16.8px;&quot;&gt;.&lt;/span&gt;&lt;span style=&quot;white-space: pre; font-family: Consolas, &amp;quot;Courier New&amp;quot;, monospace; font-size: 16.8px; color: rgb(209, 154, 102);&quot;&gt;ЧЛВК_ИД&lt;/span&gt;&lt;span&gt;&lt;span style=&quot;font-family: Consolas, &amp;quot;Courier New&amp;quot;, monospace; font-size: 16.8px; white-space: pre;&quot;&gt;&lt;font color=&quot;#abb2bf&quot;&gt;&amp;nbsp;&lt;/font&gt;&lt;/span&gt;&lt;span style=&quot;font-family: Consolas, &amp;quot;Courier New&amp;quot;, monospace; font-size: 16.8px; white-space: pre; color: rgb(86, 182, 194);&quot;&gt;&amp;gt;&lt;/span&gt;&lt;span style=&quot;color: rgb(171, 178, 191); font-family: Consolas, &amp;quot;Courier New&amp;quot;, monospace; font-size: 16.8px; white-space: pre;&quot;&gt; &lt;/span&gt;&lt;span style=&quot;font-family: Consolas, &amp;quot;Courier New&amp;quot;, monospace; font-size: 16.8px; white-space: pre; color: rgb(209, 154, 102);&quot;&gt;117219&lt;/span&gt;&lt;span style=&quot;color: light-dark(rgb(0, 0, 0), rgb(255, 255, 255));&quot;&gt;)&lt;/span&gt;&lt;/span&gt;" style="text;whiteSpace=wrap;html=1;align=center;" parent="1" vertex="1">
          <mxGeometry x="887.5" y="290" width="285" height="40" as="geometry" />
        </mxCell>
        <mxCell id="WkcwOZB6-lNgY68ppt4C-39" style="edgeStyle=orthogonalEdgeStyle;rounded=0;orthogonalLoop=1;jettySize=auto;html=1;entryX=0.5;entryY=1;entryDx=0;entryDy=0;align=center;" parent="1" source="WkcwOZB6-lNgY68ppt4C-30" target="WkcwOZB6-lNgY68ppt4C-32" edge="1">
          <mxGeometry relative="1" as="geometry" />
        </mxCell>
        <mxCell id="WkcwOZB6-lNgY68ppt4C-30" value="&lt;div style=&quot;color: rgb(171, 178, 191); background-color: rgb(35, 39, 46); font-family: Consolas, &amp;quot;Courier New&amp;quot;, monospace; font-size: 16.8px; line-height: 22px; white-space-collapse: preserve;&quot;&gt;Н_ВЕДОМОСТИ&lt;/div&gt;" style="text;html=1;align=center;verticalAlign=middle;resizable=0;points=[];autosize=1;strokeColor=none;fillColor=none;" parent="1" vertex="1">
          <mxGeometry x="1147.5" y="490" width="130" height="40" as="geometry" />
        </mxCell>
        <mxCell id="WkcwOZB6-lNgY68ppt4C-40" style="edgeStyle=orthogonalEdgeStyle;rounded=0;orthogonalLoop=1;jettySize=auto;html=1;entryX=0.5;entryY=1;entryDx=0;entryDy=0;align=center;" parent="1" source="WkcwOZB6-lNgY68ppt4C-32" target="WkcwOZB6-lNgY68ppt4C-28" edge="1">
          <mxGeometry relative="1" as="geometry" />
        </mxCell>
        <mxCell id="WkcwOZB6-lNgY68ppt4C-32" value="&lt;span&gt;&lt;font style=&quot;font-size: 20px;&quot;&gt;⋈&lt;/font&gt;&lt;font style=&quot;&quot;&gt;(&lt;/font&gt;&lt;/span&gt;&lt;span style=&quot;background-color: rgb(35, 39, 46); color: rgb(171, 178, 191); font-family: Consolas, &amp;quot;Courier New&amp;quot;, monospace; font-size: 16.8px; white-space: pre;&quot;&gt;Н_ТИПЫ_ВЕДОМОСТЕЙ&lt;/span&gt;&lt;span style=&quot;background-color: transparent; color: light-dark(rgb(0, 0, 0), rgb(255, 255, 255));&quot;&gt;&lt;span style=&quot;color: rgb(171, 178, 191); font-family: Consolas, &amp;quot;Courier New&amp;quot;, monospace; font-size: 16.8px; white-space: pre;&quot;&gt;.&lt;/span&gt;&lt;span style=&quot;font-family: Consolas, &amp;quot;Courier New&amp;quot;, monospace; font-size: 16.8px; white-space: pre; color: rgb(209, 154, 102);&quot;&gt;ИД&lt;/span&gt;&lt;span style=&quot;color: rgb(171, 178, 191); font-family: Consolas, &amp;quot;Courier New&amp;quot;, monospace; font-size: 16.8px; white-space: pre;&quot;&gt; &lt;/span&gt;&lt;span style=&quot;font-family: Consolas, &amp;quot;Courier New&amp;quot;, monospace; font-size: 16.8px; white-space: pre; color: rgb(86, 182, 194);&quot;&gt;=&lt;/span&gt;&lt;span style=&quot;color: rgb(171, 178, 191); font-family: Consolas, &amp;quot;Courier New&amp;quot;, monospace; font-size: 16.8px; white-space: pre;&quot;&gt; &lt;/span&gt;&lt;/span&gt;&lt;span style=&quot;background-color: rgb(35, 39, 46); color: rgb(171, 178, 191); font-family: Consolas, &amp;quot;Courier New&amp;quot;, monospace; font-size: 16.8px; white-space: pre;&quot;&gt;Н_ВЕДОМОСТИ&lt;/span&gt;&lt;span style=&quot;background-color: transparent; color: light-dark(rgb(0, 0, 0), rgb(255, 255, 255));&quot;&gt;&lt;span style=&quot;color: rgb(171, 178, 191); font-family: Consolas, &amp;quot;Courier New&amp;quot;, monospace; font-size: 16.8px; white-space: pre;&quot;&gt;.&lt;/span&gt;&lt;span style=&quot;font-family: Consolas, &amp;quot;Courier New&amp;quot;, monospace; font-size: 16.8px; white-space: pre; color: rgb(209, 154, 102);&quot;&gt;ТВ_ИД&lt;/span&gt;&lt;/span&gt;&lt;span style=&quot;background-color: transparent; color: light-dark(rgb(0, 0, 0), rgb(255, 255, 255));&quot;&gt;)&lt;/span&gt;" style="text;whiteSpace=wrap;html=1;align=center;" parent="1" vertex="1">
          <mxGeometry x="827.5" y="380" width="405" height="40" as="geometry" />
        </mxCell>
        <mxCell id="WkcwOZB6-lNgY68ppt4C-43" style="edgeStyle=orthogonalEdgeStyle;rounded=0;orthogonalLoop=1;jettySize=auto;html=1;entryX=0.5;entryY=1;entryDx=0;entryDy=0;align=center;" parent="1" source="WkcwOZB6-lNgY68ppt4C-34" target="WkcwOZB6-lNgY68ppt4C-37" edge="1">
          <mxGeometry relative="1" as="geometry" />
        </mxCell>
        <mxCell id="WkcwOZB6-lNgY68ppt4C-34" value="&lt;span&gt;&lt;font style=&quot;font-size: 20px;&quot;&gt;φ&lt;/font&gt;(&lt;/span&gt;&lt;span style=&quot;white-space: pre; color: rgb(171, 178, 191); font-family: Consolas, &amp;quot;Courier New&amp;quot;, monospace; font-size: 16.8px;&quot;&gt;&lt;span style=&quot;background-color: rgb(35, 39, 46);&quot;&gt;Н_ТИПЫ_ВЕДОМОСТЕЙ&lt;/span&gt;.&lt;/span&gt;&lt;span style=&quot;white-space: pre; font-family: Consolas, &amp;quot;Courier New&amp;quot;, monospace; font-size: 16.8px; color: rgb(209, 154, 102);&quot;&gt;НАИМЕНОВАНИЕ &lt;/span&gt;&lt;span&gt;&lt;span style=&quot;font-family: Consolas, &amp;quot;Courier New&amp;quot;, monospace; font-size: 16.8px; white-space: pre; color: rgb(86, 182, 194);&quot;&gt;&amp;lt;&lt;/span&gt;&lt;span style=&quot;color: rgb(171, 178, 191); font-family: Consolas, &amp;quot;Courier New&amp;quot;, monospace; font-size: 16.8px; white-space: pre;&quot;&gt; &lt;/span&gt;&lt;span style=&quot;font-family: Consolas, &amp;quot;Courier New&amp;quot;, monospace; font-size: 16.8px; white-space: pre; color: rgb(152, 195, 121);&quot;&gt;&#39;Экзаменационный лист&#39;&lt;/span&gt;&lt;span style=&quot;color: light-dark(rgb(0, 0, 0), rgb(255, 255, 255));&quot;&gt;)&lt;/span&gt;&lt;/span&gt;" style="text;whiteSpace=wrap;html=1;align=center;" parent="1" vertex="1">
          <mxGeometry x="760" y="110" width="540" height="40" as="geometry" />
        </mxCell>
        <mxCell id="WkcwOZB6-lNgY68ppt4C-38" style="edgeStyle=orthogonalEdgeStyle;rounded=0;orthogonalLoop=1;jettySize=auto;html=1;entryX=0.5;entryY=1;entryDx=0;entryDy=0;align=center;" parent="1" source="WkcwOZB6-lNgY68ppt4C-36" target="WkcwOZB6-lNgY68ppt4C-32" edge="1">
          <mxGeometry relative="1" as="geometry" />
        </mxCell>
        <mxCell id="WkcwOZB6-lNgY68ppt4C-36" value="&lt;div style=&quot;color: rgb(171, 178, 191); background-color: rgb(35, 39, 46); font-family: Consolas, &amp;quot;Courier New&amp;quot;, monospace; font-size: 16.8px; line-height: 22px; white-space-collapse: preserve;&quot;&gt;&lt;div style=&quot;line-height: 22px;&quot;&gt;Н_ТИПЫ_ВЕДОМОСТЕЙ&lt;/div&gt;&lt;/div&gt;" style="text;html=1;align=center;verticalAlign=middle;resizable=0;points=[];autosize=1;strokeColor=none;fillColor=none;" parent="1" vertex="1">
          <mxGeometry x="782.5" y="490" width="180" height="40" as="geometry" />
        </mxCell>
        <mxCell id="WkcwOZB6-lNgY68ppt4C-37" value="&lt;font style=&quot;text-wrap-mode: nowrap; font-size: 20px;&quot;&gt;π&lt;/font&gt;&lt;span style=&quot;text-wrap-mode: nowrap;&quot;&gt;(&lt;/span&gt;&lt;span style=&quot;white-space: pre; color: rgb(171, 178, 191); font-family: Consolas, &amp;quot;Courier New&amp;quot;, monospace; font-size: 16.8px;&quot;&gt;&lt;span style=&quot;background-color: rgb(35, 39, 46);&quot;&gt;Н_ТИПЫ_ВЕДОМОСТЕЙ&lt;/span&gt;.&lt;/span&gt;&lt;span style=&quot;white-space: pre; font-family: Consolas, &amp;quot;Courier New&amp;quot;, monospace; font-size: 16.8px; color: rgb(209, 154, 102);&quot;&gt;НАИМЕНОВАНИЕ, &lt;/span&gt;&lt;span style=&quot;color: rgb(171, 178, 191); font-family: Consolas, &amp;quot;Courier New&amp;quot;, monospace; font-size: 16.8px; white-space: pre; background-color: rgb(35, 39, 46);&quot;&gt;Н_ВЕДОМОСТИ&lt;/span&gt;&lt;span style=&quot;white-space: pre; color: rgb(171, 178, 191); font-family: Consolas, &amp;quot;Courier New&amp;quot;, monospace; font-size: 16.8px;&quot;&gt;.&lt;/span&gt;&lt;span style=&quot;white-space: pre; font-family: Consolas, &amp;quot;Courier New&amp;quot;, monospace; font-size: 16.8px; color: rgb(209, 154, 102);&quot;&gt;ЧЛВК_ИД&lt;/span&gt;&lt;span style=&quot;white-space: pre; font-family: Consolas, &amp;quot;Courier New&amp;quot;, monospace; font-size: 16.8px;&quot;&gt;)&lt;/span&gt;" style="text;whiteSpace=wrap;html=1;align=center;" parent="1" vertex="1">
          <mxGeometry x="776.25" y="20" width="507.5" height="40" as="geometry" />
        </mxCell>
        <mxCell id="M6zTAdS9g-BhqZ4uG254-15" style="edgeStyle=orthogonalEdgeStyle;rounded=0;orthogonalLoop=1;jettySize=auto;html=1;entryX=0.5;entryY=1;entryDx=0;entryDy=0;" edge="1" parent="1" source="M6zTAdS9g-BhqZ4uG254-4" target="M6zTAdS9g-BhqZ4uG254-8">
          <mxGeometry relative="1" as="geometry" />
        </mxCell>
        <mxCell id="M6zTAdS9g-BhqZ4uG254-4" value="&lt;span&gt;&lt;font style=&quot;font-size: 20px;&quot;&gt;φ&lt;/font&gt;(&lt;span style=&quot;font-family: Consolas, &amp;quot;Courier New&amp;quot;, monospace; font-size: 16.8px; white-space: pre; color: rgb(209, 154, 102);&quot;&gt;ЧЛВК_ИД&lt;/span&gt;&lt;span style=&quot;color: rgb(171, 178, 191); font-family: Consolas, &amp;quot;Courier New&amp;quot;, monospace; font-size: 16.8px; white-space: pre;&quot;&gt; &lt;/span&gt;&lt;span style=&quot;font-family: Consolas, &amp;quot;Courier New&amp;quot;, monospace; font-size: 16.8px; white-space: pre; color: rgb(86, 182, 194);&quot;&gt;=&lt;/span&gt;&lt;span style=&quot;color: rgb(171, 178, 191); font-family: Consolas, &amp;quot;Courier New&amp;quot;, monospace; font-size: 16.8px; white-space: pre;&quot;&gt; &lt;/span&gt;&lt;span style=&quot;font-family: Consolas, &amp;quot;Courier New&amp;quot;, monospace; font-size: 16.8px; white-space: pre; color: rgb(209, 154, 102);&quot;&gt;105590&lt;/span&gt;&lt;span style=&quot;color: light-dark(rgb(0, 0, 0), rgb(255, 255, 255));&quot;&gt;)&lt;/span&gt;&lt;/span&gt;" style="text;whiteSpace=wrap;html=1;align=center;" vertex="1" parent="1">
          <mxGeometry x="1934.5" y="530" width="200" height="40" as="geometry" />
        </mxCell>
        <mxCell id="M6zTAdS9g-BhqZ4uG254-5" style="edgeStyle=orthogonalEdgeStyle;rounded=0;orthogonalLoop=1;jettySize=auto;html=1;entryX=0.5;entryY=1;entryDx=0;entryDy=0;align=center;" edge="1" parent="1" source="M6zTAdS9g-BhqZ4uG254-6" target="M6zTAdS9g-BhqZ4uG254-4">
          <mxGeometry relative="1" as="geometry" />
        </mxCell>
        <mxCell id="M6zTAdS9g-BhqZ4uG254-6" value="&lt;div style=&quot;color: rgb(171, 178, 191); background-color: rgb(35, 39, 46); font-family: Consolas, &amp;quot;Courier New&amp;quot;, monospace; font-size: 16.8px; line-height: 22px; white-space-collapse: preserve;&quot;&gt;Н_ВЕДОМОСТИ&lt;/div&gt;" style="text;html=1;align=center;verticalAlign=middle;resizable=0;points=[];autosize=1;strokeColor=none;fillColor=none;" vertex="1" parent="1">
          <mxGeometry x="1969.5" y="610" width="130" height="40" as="geometry" />
        </mxCell>
        <mxCell id="M6zTAdS9g-BhqZ4uG254-18" style="edgeStyle=orthogonalEdgeStyle;rounded=0;orthogonalLoop=1;jettySize=auto;html=1;entryX=0.5;entryY=1;entryDx=0;entryDy=0;" edge="1" parent="1" source="M6zTAdS9g-BhqZ4uG254-8" target="M6zTAdS9g-BhqZ4uG254-16">
          <mxGeometry relative="1" as="geometry" />
        </mxCell>
        <mxCell id="M6zTAdS9g-BhqZ4uG254-8" value="&lt;span&gt;&lt;font style=&quot;font-size: 20px;&quot;&gt;⋈&lt;/font&gt;&lt;font style=&quot;&quot;&gt;(&lt;/font&gt;&lt;span style=&quot;background-color: rgb(35, 39, 46); color: rgb(171, 178, 191); font-family: Consolas, &amp;quot;Courier New&amp;quot;, monospace; font-size: 16.8px; white-space: pre;&quot;&gt;Н_ЛЮДИ&lt;/span&gt;&lt;/span&gt;&lt;span style=&quot;background-color: transparent; color: rgb(171, 178, 191); font-family: Consolas, &amp;quot;Courier New&amp;quot;, monospace; font-size: 16.8px; white-space: pre;&quot;&gt;.&lt;/span&gt;&lt;span style=&quot;background-color: transparent; font-family: Consolas, &amp;quot;Courier New&amp;quot;, monospace; font-size: 16.8px; white-space: pre; color: rgb(209, 154, 102);&quot;&gt;ИД&lt;/span&gt;&lt;span style=&quot;background-color: transparent; color: rgb(171, 178, 191); font-family: Consolas, &amp;quot;Courier New&amp;quot;, monospace; font-size: 16.8px; white-space: pre;&quot;&gt; &lt;/span&gt;&lt;span style=&quot;background-color: transparent; font-family: Consolas, &amp;quot;Courier New&amp;quot;, monospace; font-size: 16.8px; white-space: pre; color: rgb(86, 182, 194);&quot;&gt;=&lt;/span&gt;&lt;span style=&quot;background-color: transparent; color: rgb(171, 178, 191); font-family: Consolas, &amp;quot;Courier New&amp;quot;, monospace; font-size: 16.8px; white-space: pre;&quot;&gt; &lt;/span&gt;&lt;span style=&quot;background-color: rgb(35, 39, 46); color: rgb(171, 178, 191); font-family: Consolas, &amp;quot;Courier New&amp;quot;, monospace; font-size: 16.8px; white-space: pre;&quot;&gt;Н_ВЕДОМОСТИ&lt;/span&gt;&lt;span style=&quot;background-color: transparent; color: rgb(171, 178, 191); font-family: Consolas, &amp;quot;Courier New&amp;quot;, monospace; font-size: 16.8px; white-space: pre;&quot;&gt;.&lt;/span&gt;&lt;span style=&quot;background-color: transparent; font-family: Consolas, &amp;quot;Courier New&amp;quot;, monospace; font-size: 16.8px; white-space: pre; color: rgb(209, 154, 102);&quot;&gt;ЧЛВК_ИД&lt;/span&gt;&lt;span style=&quot;background-color: transparent; color: light-dark(rgb(0, 0, 0), rgb(255, 255, 255));&quot;&gt;)&lt;/span&gt;" style="text;whiteSpace=wrap;html=1;align=center;" vertex="1" parent="1">
          <mxGeometry x="1649.5" y="410" width="405" height="40" as="geometry" />
        </mxCell>
        <mxCell id="M6zTAdS9g-BhqZ4uG254-9" style="edgeStyle=orthogonalEdgeStyle;rounded=0;orthogonalLoop=1;jettySize=auto;html=1;entryX=0.5;entryY=1;entryDx=0;entryDy=0;align=center;" edge="1" parent="1" source="M6zTAdS9g-BhqZ4uG254-10" target="M6zTAdS9g-BhqZ4uG254-8">
          <mxGeometry relative="1" as="geometry" />
        </mxCell>
        <mxCell id="M6zTAdS9g-BhqZ4uG254-10" value="&lt;span&gt;&lt;font style=&quot;font-size: 20px;&quot;&gt;φ&lt;/font&gt;(&lt;span style=&quot;font-family: Consolas, &amp;quot;Courier New&amp;quot;, monospace; font-size: 16.8px; white-space: pre; color: rgb(209, 154, 102);&quot;&gt;ИМЯ&lt;/span&gt;&lt;span style=&quot;color: rgb(171, 178, 191); font-family: Consolas, &amp;quot;Courier New&amp;quot;, monospace; font-size: 16.8px; white-space: pre;&quot;&gt; &lt;/span&gt;&lt;span style=&quot;font-family: Consolas, &amp;quot;Courier New&amp;quot;, monospace; font-size: 16.8px; white-space: pre; color: rgb(86, 182, 194);&quot;&gt;=&lt;/span&gt;&lt;span style=&quot;color: rgb(171, 178, 191); font-family: Consolas, &amp;quot;Courier New&amp;quot;, monospace; font-size: 16.8px; white-space: pre;&quot;&gt; &lt;/span&gt;&lt;span style=&quot;font-family: Consolas, &amp;quot;Courier New&amp;quot;, monospace; font-size: 16.8px; white-space: pre; color: rgb(152, 195, 121);&quot;&gt;&#39;Ярослав&#39;&lt;/span&gt;&lt;span style=&quot;color: light-dark(rgb(0, 0, 0), rgb(255, 255, 255));&quot;&gt;)&lt;/span&gt;&lt;/span&gt;" style="text;whiteSpace=wrap;html=1;align=center;" vertex="1" parent="1">
          <mxGeometry x="1600" y="530" width="190" height="40" as="geometry" />
        </mxCell>
        <mxCell id="M6zTAdS9g-BhqZ4uG254-11" style="edgeStyle=orthogonalEdgeStyle;rounded=0;orthogonalLoop=1;jettySize=auto;html=1;entryX=0.5;entryY=1;entryDx=0;entryDy=0;align=center;" edge="1" parent="1" source="M6zTAdS9g-BhqZ4uG254-12" target="M6zTAdS9g-BhqZ4uG254-10">
          <mxGeometry relative="1" as="geometry" />
        </mxCell>
        <mxCell id="M6zTAdS9g-BhqZ4uG254-12" value="&lt;div style=&quot;color: rgb(171, 178, 191); background-color: rgb(35, 39, 46); font-family: Consolas, &amp;quot;Courier New&amp;quot;, monospace; font-size: 16.8px; line-height: 22px; white-space-collapse: preserve;&quot;&gt;&lt;div style=&quot;line-height: 22px;&quot;&gt;&lt;div style=&quot;line-height: 22px;&quot;&gt;Н_ЛЮДИ&lt;/div&gt;&lt;/div&gt;&lt;/div&gt;" style="text;html=1;align=center;verticalAlign=middle;resizable=0;points=[];autosize=1;strokeColor=none;fillColor=none;" vertex="1" parent="1">
          <mxGeometry x="1658.5" y="613" width="73" height="34" as="geometry" />
        </mxCell>
        <mxCell id="M6zTAdS9g-BhqZ4uG254-22" style="edgeStyle=orthogonalEdgeStyle;rounded=0;orthogonalLoop=1;jettySize=auto;html=1;entryX=0.5;entryY=1;entryDx=0;entryDy=0;" edge="1" parent="1" source="M6zTAdS9g-BhqZ4uG254-16" target="M6zTAdS9g-BhqZ4uG254-21">
          <mxGeometry relative="1" as="geometry" />
        </mxCell>
        <mxCell id="M6zTAdS9g-BhqZ4uG254-16" value="&lt;span&gt;&lt;font style=&quot;font-size: 20px;&quot;&gt;⋈&lt;/font&gt;&lt;font style=&quot;&quot;&gt;(&lt;/font&gt;&lt;/span&gt;&lt;span style=&quot;color: rgb(171, 178, 191); font-family: Consolas, &amp;quot;Courier New&amp;quot;, monospace; font-size: 16.8px; white-space: pre; background-color: rgb(35, 39, 46);&quot;&gt;Н_ВЕДОМОСТИ&lt;/span&gt;&lt;span&gt;&lt;span style=&quot;color: rgb(171, 178, 191); font-family: Consolas, &amp;quot;Courier New&amp;quot;, monospace; font-size: 16.8px; white-space: pre;&quot;&gt;.&lt;/span&gt;&lt;span style=&quot;font-family: Consolas, &amp;quot;Courier New&amp;quot;, monospace; font-size: 16.8px; white-space: pre; color: rgb(209, 154, 102);&quot;&gt;ЧЛВК_ИД&lt;/span&gt;&lt;span style=&quot;color: rgb(171, 178, 191); font-family: Consolas, &amp;quot;Courier New&amp;quot;, monospace; font-size: 16.8px; white-space: pre;&quot;&gt; &lt;/span&gt;&lt;span style=&quot;font-family: Consolas, &amp;quot;Courier New&amp;quot;, monospace; font-size: 16.8px; white-space: pre; color: rgb(86, 182, 194);&quot;&gt;=&lt;/span&gt;&lt;span style=&quot;color: rgb(171, 178, 191); font-family: Consolas, &amp;quot;Courier New&amp;quot;, monospace; font-size: 16.8px; white-space: pre;&quot;&gt; &lt;/span&gt;&lt;/span&gt;&lt;span style=&quot;background-color: rgb(35, 39, 46); color: rgb(171, 178, 191); font-family: Consolas, &amp;quot;Courier New&amp;quot;, monospace; font-size: 16.8px; white-space: pre;&quot;&gt;Н_СЕССИЯ&lt;/span&gt;&lt;span style=&quot;background-color: transparent; color: rgb(171, 178, 191); font-family: Consolas, &amp;quot;Courier New&amp;quot;, monospace; font-size: 16.8px; white-space: pre;&quot;&gt;.&lt;/span&gt;&lt;span style=&quot;background-color: transparent; font-family: Consolas, &amp;quot;Courier New&amp;quot;, monospace; font-size: 16.8px; white-space: pre; color: rgb(209, 154, 102);&quot;&gt;ЧЛВК_ИД&lt;/span&gt;&lt;span style=&quot;background-color: transparent; color: light-dark(rgb(0, 0, 0), rgb(255, 255, 255));&quot;&gt;)&lt;/span&gt;" style="text;whiteSpace=wrap;html=1;align=center;" vertex="1" parent="1">
          <mxGeometry x="1832" y="270" width="405" height="40" as="geometry" />
        </mxCell>
        <mxCell id="M6zTAdS9g-BhqZ4uG254-20" style="edgeStyle=orthogonalEdgeStyle;rounded=0;orthogonalLoop=1;jettySize=auto;html=1;entryX=0.5;entryY=1;entryDx=0;entryDy=0;" edge="1" parent="1" source="M6zTAdS9g-BhqZ4uG254-19" target="M6zTAdS9g-BhqZ4uG254-16">
          <mxGeometry relative="1" as="geometry" />
        </mxCell>
        <mxCell id="M6zTAdS9g-BhqZ4uG254-19" value="&lt;div style=&quot;color: rgb(171, 178, 191); background-color: rgb(35, 39, 46); font-family: Consolas, &amp;quot;Courier New&amp;quot;, monospace; font-size: 16.8px; line-height: 22px; white-space-collapse: preserve;&quot;&gt;&lt;div style=&quot;line-height: 22px;&quot;&gt;Н_СЕССИЯ&lt;/div&gt;&lt;/div&gt;" style="text;html=1;align=center;verticalAlign=middle;resizable=0;points=[];autosize=1;strokeColor=none;fillColor=none;" vertex="1" parent="1">
          <mxGeometry x="2146.5" y="410" width="100" height="40" as="geometry" />
        </mxCell>
        <mxCell id="M6zTAdS9g-BhqZ4uG254-21" value="&lt;span style=&quot;background-color: light-dark(#ffffff, var(--ge-dark-color, #121212));&quot;&gt;&lt;font style=&quot;text-wrap-mode: nowrap; font-size: 20px;&quot;&gt;π&lt;/font&gt;&lt;span style=&quot;text-wrap-mode: nowrap;&quot;&gt;(&lt;/span&gt;&lt;/span&gt;&lt;span style=&quot;color: rgb(171, 178, 191); font-family: Consolas, &amp;quot;Courier New&amp;quot;, monospace; font-size: 16.8px; white-space: pre; background-color: rgb(35, 39, 46);&quot;&gt;Н_ЛЮДИ&lt;/span&gt;&lt;span style=&quot;background-color: light-dark(#ffffff, var(--ge-dark-color, #121212));&quot;&gt;&lt;span style=&quot;color: rgb(171, 178, 191); font-family: Consolas, &amp;quot;Courier New&amp;quot;, monospace; font-size: 16.8px; white-space: pre;&quot;&gt;.&lt;/span&gt;&lt;span style=&quot;font-family: Consolas, &amp;quot;Courier New&amp;quot;, monospace; font-size: 16.8px; white-space: pre; color: rgb(209, 154, 102);&quot;&gt;ИД&lt;/span&gt;&lt;span style=&quot;color: rgb(171, 178, 191); font-family: Consolas, &amp;quot;Courier New&amp;quot;, monospace; font-size: 16.8px; white-space: pre;&quot;&gt;, &lt;/span&gt;&lt;/span&gt;&lt;span style=&quot;background-color: rgb(35, 39, 46); color: rgb(171, 178, 191); font-family: Consolas, &amp;quot;Courier New&amp;quot;, monospace; font-size: 16.8px; white-space: pre;&quot;&gt;Н_ВЕДОМОСТИ&lt;/span&gt;&lt;span style=&quot;color: rgb(171, 178, 191); font-family: Consolas, &amp;quot;Courier New&amp;quot;, monospace; font-size: 16.8px; white-space: pre;&quot;&gt;.&lt;/span&gt;&lt;span style=&quot;font-family: Consolas, &amp;quot;Courier New&amp;quot;, monospace; font-size: 16.8px; white-space: pre; color: rgb(209, 154, 102);&quot;&gt;ДАТА&lt;/span&gt;&lt;span style=&quot;color: rgb(171, 178, 191); font-family: Consolas, &amp;quot;Courier New&amp;quot;, monospace; font-size: 16.8px; white-space: pre;&quot;&gt;, &lt;/span&gt;&lt;span style=&quot;background-color: rgb(35, 39, 46); color: rgb(171, 178, 191); font-family: Consolas, &amp;quot;Courier New&amp;quot;, monospace; font-size: 16.8px; white-space: pre;&quot;&gt;Н_СЕССИЯ&lt;/span&gt;&lt;span style=&quot;background-color: transparent; color: rgb(171, 178, 191); font-family: Consolas, &amp;quot;Courier New&amp;quot;, monospace; font-size: 16.8px; white-space: pre;&quot;&gt;.&lt;/span&gt;&lt;span style=&quot;background-color: transparent; font-family: Consolas, &amp;quot;Courier New&amp;quot;, monospace; font-size: 16.8px; white-space: pre; color: rgb(209, 154, 102);&quot;&gt;УЧГОД&lt;/span&gt;&lt;span style=&quot;background-color: transparent; color: light-dark(rgb(0, 0, 0), rgb(255, 255, 255)); font-family: Consolas, &amp;quot;Courier New&amp;quot;, monospace; font-size: 16.8px; white-space: pre;&quot;&gt;)&lt;/span&gt;" style="text;whiteSpace=wrap;html=1;align=center;" vertex="1" parent="1">
          <mxGeometry x="1780.75" y="170" width="507.5" height="40" as="geometry" />
        </mxCell>
        <mxCell id="M6zTAdS9g-BhqZ4uG254-55" style="edgeStyle=orthogonalEdgeStyle;rounded=0;orthogonalLoop=1;jettySize=auto;html=1;entryX=0.5;entryY=1;entryDx=0;entryDy=0;" edge="1" parent="1" source="M6zTAdS9g-BhqZ4uG254-41" target="M6zTAdS9g-BhqZ4uG254-43">
          <mxGeometry relative="1" as="geometry">
            <Array as="points">
              <mxPoint x="2815.5" y="610" />
              <mxPoint x="2632.5" y="610" />
            </Array>
          </mxGeometry>
        </mxCell>
        <mxCell id="M6zTAdS9g-BhqZ4uG254-41" value="&lt;div style=&quot;color: rgb(171, 178, 191); background-color: rgb(35, 39, 46); font-family: Consolas, &amp;quot;Courier New&amp;quot;, monospace; font-size: 16.8px; line-height: 22px; white-space-collapse: preserve;&quot;&gt;Н_ВЕДОМОСТИ&lt;/div&gt;" style="text;html=1;align=center;verticalAlign=middle;resizable=0;points=[];autosize=1;strokeColor=none;fillColor=none;" vertex="1" parent="1">
          <mxGeometry x="2750" y="640" width="130" height="40" as="geometry" />
        </mxCell>
        <mxCell id="M6zTAdS9g-BhqZ4uG254-42" style="edgeStyle=orthogonalEdgeStyle;rounded=0;orthogonalLoop=1;jettySize=auto;html=1;entryX=0.5;entryY=1;entryDx=0;entryDy=0;" edge="1" parent="1" source="M6zTAdS9g-BhqZ4uG254-43" target="M6zTAdS9g-BhqZ4uG254-49">
          <mxGeometry relative="1" as="geometry" />
        </mxCell>
        <mxCell id="M6zTAdS9g-BhqZ4uG254-43" value="&lt;span&gt;&lt;font style=&quot;font-size: 20px;&quot;&gt;⋈&lt;/font&gt;&lt;font style=&quot;&quot;&gt;(&lt;/font&gt;&lt;span style=&quot;background-color: rgb(35, 39, 46); color: rgb(171, 178, 191); font-family: Consolas, &amp;quot;Courier New&amp;quot;, monospace; font-size: 16.8px; white-space: pre;&quot;&gt;Н_ЛЮДИ&lt;/span&gt;&lt;/span&gt;&lt;span style=&quot;background-color: transparent; color: rgb(171, 178, 191); font-family: Consolas, &amp;quot;Courier New&amp;quot;, monospace; font-size: 16.8px; white-space: pre;&quot;&gt;.&lt;/span&gt;&lt;span style=&quot;background-color: transparent; font-family: Consolas, &amp;quot;Courier New&amp;quot;, monospace; font-size: 16.8px; white-space: pre; color: rgb(209, 154, 102);&quot;&gt;ИД&lt;/span&gt;&lt;span style=&quot;background-color: transparent; color: rgb(171, 178, 191); font-family: Consolas, &amp;quot;Courier New&amp;quot;, monospace; font-size: 16.8px; white-space: pre;&quot;&gt; &lt;/span&gt;&lt;span style=&quot;background-color: transparent; font-family: Consolas, &amp;quot;Courier New&amp;quot;, monospace; font-size: 16.8px; white-space: pre; color: rgb(86, 182, 194);&quot;&gt;=&lt;/span&gt;&lt;span style=&quot;background-color: transparent; color: rgb(171, 178, 191); font-family: Consolas, &amp;quot;Courier New&amp;quot;, monospace; font-size: 16.8px; white-space: pre;&quot;&gt; &lt;/span&gt;&lt;span style=&quot;background-color: rgb(35, 39, 46); color: rgb(171, 178, 191); font-family: Consolas, &amp;quot;Courier New&amp;quot;, monospace; font-size: 16.8px; white-space: pre;&quot;&gt;Н_ВЕДОМОСТИ&lt;/span&gt;&lt;span style=&quot;background-color: transparent; color: rgb(171, 178, 191); font-family: Consolas, &amp;quot;Courier New&amp;quot;, monospace; font-size: 16.8px; white-space: pre;&quot;&gt;.&lt;/span&gt;&lt;span style=&quot;background-color: transparent; font-family: Consolas, &amp;quot;Courier New&amp;quot;, monospace; font-size: 16.8px; white-space: pre; color: rgb(209, 154, 102);&quot;&gt;ЧЛВК_ИД&lt;/span&gt;&lt;span style=&quot;background-color: transparent; color: light-dark(rgb(0, 0, 0), rgb(255, 255, 255));&quot;&gt;)&lt;/span&gt;" style="text;whiteSpace=wrap;html=1;align=center;" vertex="1" parent="1">
          <mxGeometry x="2430" y="533" width="405" height="40" as="geometry" />
        </mxCell>
        <mxCell id="M6zTAdS9g-BhqZ4uG254-53" style="edgeStyle=orthogonalEdgeStyle;rounded=0;orthogonalLoop=1;jettySize=auto;html=1;entryX=0.5;entryY=1;entryDx=0;entryDy=0;" edge="1" parent="1" source="M6zTAdS9g-BhqZ4uG254-47" target="M6zTAdS9g-BhqZ4uG254-43">
          <mxGeometry relative="1" as="geometry">
            <Array as="points">
              <mxPoint x="2475.5" y="610" />
              <mxPoint x="2632.5" y="610" />
            </Array>
          </mxGeometry>
        </mxCell>
        <mxCell id="M6zTAdS9g-BhqZ4uG254-47" value="&lt;div style=&quot;color: rgb(171, 178, 191); background-color: rgb(35, 39, 46); font-family: Consolas, &amp;quot;Courier New&amp;quot;, monospace; font-size: 16.8px; line-height: 22px; white-space-collapse: preserve;&quot;&gt;&lt;div style=&quot;line-height: 22px;&quot;&gt;&lt;div style=&quot;line-height: 22px;&quot;&gt;Н_ЛЮДИ&lt;/div&gt;&lt;/div&gt;&lt;/div&gt;" style="text;html=1;align=center;verticalAlign=middle;resizable=0;points=[];autosize=1;strokeColor=none;fillColor=none;" vertex="1" parent="1">
          <mxGeometry x="2439" y="643" width="73" height="34" as="geometry" />
        </mxCell>
        <mxCell id="M6zTAdS9g-BhqZ4uG254-59" style="edgeStyle=orthogonalEdgeStyle;rounded=0;orthogonalLoop=1;jettySize=auto;html=1;entryX=0.5;entryY=1;entryDx=0;entryDy=0;" edge="1" parent="1" source="M6zTAdS9g-BhqZ4uG254-49" target="M6zTAdS9g-BhqZ4uG254-56">
          <mxGeometry relative="1" as="geometry" />
        </mxCell>
        <mxCell id="M6zTAdS9g-BhqZ4uG254-49" value="&lt;span&gt;&lt;font style=&quot;font-size: 20px;&quot;&gt;⋈&lt;/font&gt;&lt;font style=&quot;&quot;&gt;(&lt;/font&gt;&lt;/span&gt;&lt;span style=&quot;color: rgb(171, 178, 191); font-family: Consolas, &amp;quot;Courier New&amp;quot;, monospace; font-size: 16.8px; white-space: pre; background-color: rgb(35, 39, 46);&quot;&gt;Н_ВЕДОМОСТИ&lt;/span&gt;&lt;span&gt;&lt;span style=&quot;color: rgb(171, 178, 191); font-family: Consolas, &amp;quot;Courier New&amp;quot;, monospace; font-size: 16.8px; white-space: pre;&quot;&gt;.&lt;/span&gt;&lt;span style=&quot;font-family: Consolas, &amp;quot;Courier New&amp;quot;, monospace; font-size: 16.8px; white-space: pre; color: rgb(209, 154, 102);&quot;&gt;ЧЛВК_ИД&lt;/span&gt;&lt;span style=&quot;color: rgb(171, 178, 191); font-family: Consolas, &amp;quot;Courier New&amp;quot;, monospace; font-size: 16.8px; white-space: pre;&quot;&gt; &lt;/span&gt;&lt;span style=&quot;font-family: Consolas, &amp;quot;Courier New&amp;quot;, monospace; font-size: 16.8px; white-space: pre; color: rgb(86, 182, 194);&quot;&gt;=&lt;/span&gt;&lt;span style=&quot;color: rgb(171, 178, 191); font-family: Consolas, &amp;quot;Courier New&amp;quot;, monospace; font-size: 16.8px; white-space: pre;&quot;&gt; &lt;/span&gt;&lt;/span&gt;&lt;span style=&quot;background-color: rgb(35, 39, 46); color: rgb(171, 178, 191); font-family: Consolas, &amp;quot;Courier New&amp;quot;, monospace; font-size: 16.8px; white-space: pre;&quot;&gt;Н_СЕССИЯ&lt;/span&gt;&lt;span style=&quot;background-color: transparent; color: rgb(171, 178, 191); font-family: Consolas, &amp;quot;Courier New&amp;quot;, monospace; font-size: 16.8px; white-space: pre;&quot;&gt;.&lt;/span&gt;&lt;span style=&quot;background-color: transparent; font-family: Consolas, &amp;quot;Courier New&amp;quot;, monospace; font-size: 16.8px; white-space: pre; color: rgb(209, 154, 102);&quot;&gt;ЧЛВК_ИД&lt;/span&gt;&lt;span style=&quot;background-color: transparent; color: light-dark(rgb(0, 0, 0), rgb(255, 255, 255));&quot;&gt;)&lt;/span&gt;" style="text;whiteSpace=wrap;html=1;align=center;" vertex="1" parent="1">
          <mxGeometry x="2612.5" y="393" width="405" height="40" as="geometry" />
        </mxCell>
        <mxCell id="M6zTAdS9g-BhqZ4uG254-50" style="edgeStyle=orthogonalEdgeStyle;rounded=0;orthogonalLoop=1;jettySize=auto;html=1;entryX=0.5;entryY=1;entryDx=0;entryDy=0;" edge="1" parent="1" source="M6zTAdS9g-BhqZ4uG254-51" target="M6zTAdS9g-BhqZ4uG254-49">
          <mxGeometry relative="1" as="geometry" />
        </mxCell>
        <mxCell id="M6zTAdS9g-BhqZ4uG254-51" value="&lt;div style=&quot;color: rgb(171, 178, 191); background-color: rgb(35, 39, 46); font-family: Consolas, &amp;quot;Courier New&amp;quot;, monospace; font-size: 16.8px; line-height: 22px; white-space-collapse: preserve;&quot;&gt;&lt;div style=&quot;line-height: 22px;&quot;&gt;Н_СЕССИЯ&lt;/div&gt;&lt;/div&gt;" style="text;html=1;align=center;verticalAlign=middle;resizable=0;points=[];autosize=1;strokeColor=none;fillColor=none;" vertex="1" parent="1">
          <mxGeometry x="2927" y="533" width="100" height="40" as="geometry" />
        </mxCell>
        <mxCell id="M6zTAdS9g-BhqZ4uG254-60" style="edgeStyle=orthogonalEdgeStyle;rounded=0;orthogonalLoop=1;jettySize=auto;html=1;entryX=0.5;entryY=1;entryDx=0;entryDy=0;" edge="1" parent="1" source="M6zTAdS9g-BhqZ4uG254-56" target="M6zTAdS9g-BhqZ4uG254-57">
          <mxGeometry relative="1" as="geometry" />
        </mxCell>
        <mxCell id="M6zTAdS9g-BhqZ4uG254-56" value="&lt;span&gt;&lt;font style=&quot;font-size: 20px;&quot;&gt;φ&lt;/font&gt;(&lt;/span&gt;&lt;span style=&quot;background-color: rgb(35, 39, 46); color: rgb(171, 178, 191); font-family: Consolas, &amp;quot;Courier New&amp;quot;, monospace; font-size: 16.8px; white-space: pre;&quot;&gt;Н_ВЕДОМОСТИ&lt;/span&gt;&lt;span style=&quot;background-color: transparent; color: rgb(171, 178, 191); font-family: Consolas, &amp;quot;Courier New&amp;quot;, monospace; font-size: 16.8px; white-space: pre;&quot;&gt;.&lt;/span&gt;&lt;span style=&quot;background-color: transparent; font-family: Consolas, &amp;quot;Courier New&amp;quot;, monospace; font-size: 16.8px; white-space: pre; color: rgb(209, 154, 102);&quot;&gt;ЧЛВК_ИД &lt;/span&gt;&lt;span&gt;&lt;span style=&quot;font-family: Consolas, &amp;quot;Courier New&amp;quot;, monospace; font-size: 16.8px; white-space: pre; color: rgb(86, 182, 194);&quot;&gt;=&lt;/span&gt;&lt;span style=&quot;color: rgb(171, 178, 191); font-family: Consolas, &amp;quot;Courier New&amp;quot;, monospace; font-size: 16.8px; white-space: pre;&quot;&gt; &lt;/span&gt;&lt;span style=&quot;font-family: Consolas, &amp;quot;Courier New&amp;quot;, monospace; font-size: 16.8px; white-space: pre; color: rgb(209, 154, 102);&quot;&gt;105590&lt;/span&gt;&lt;span style=&quot;color: light-dark(rgb(0, 0, 0), rgb(255, 255, 255));&quot;&gt;)&lt;/span&gt;&lt;/span&gt;" style="text;whiteSpace=wrap;html=1;align=center;" vertex="1" parent="1">
          <mxGeometry x="2715" y="310" width="200" height="40" as="geometry" />
        </mxCell>
        <mxCell id="M6zTAdS9g-BhqZ4uG254-61" style="edgeStyle=orthogonalEdgeStyle;rounded=0;orthogonalLoop=1;jettySize=auto;html=1;entryX=0.5;entryY=1;entryDx=0;entryDy=0;" edge="1" parent="1" source="M6zTAdS9g-BhqZ4uG254-57" target="M6zTAdS9g-BhqZ4uG254-58">
          <mxGeometry relative="1" as="geometry" />
        </mxCell>
        <mxCell id="M6zTAdS9g-BhqZ4uG254-57" value="&lt;span&gt;&lt;font style=&quot;font-size: 20px;&quot;&gt;φ&lt;/font&gt;(&lt;/span&gt;&lt;span style=&quot;color: rgb(171, 178, 191); font-family: Consolas, &amp;quot;Courier New&amp;quot;, monospace; font-size: 16.8px; white-space: pre;&quot;&gt;&lt;span style=&quot;background-color: rgb(35, 39, 46);&quot;&gt;Н_ЛЮДИ&lt;/span&gt;.&lt;/span&gt;&lt;span style=&quot;font-family: Consolas, &amp;quot;Courier New&amp;quot;, monospace; font-size: 16.8px; white-space: pre; color: rgb(209, 154, 102);&quot;&gt;ИМЯ &lt;/span&gt;&lt;span&gt;&lt;span style=&quot;font-family: Consolas, &amp;quot;Courier New&amp;quot;, monospace; font-size: 16.8px; white-space: pre; color: rgb(86, 182, 194);&quot;&gt;=&lt;/span&gt;&lt;span style=&quot;color: rgb(171, 178, 191); font-family: Consolas, &amp;quot;Courier New&amp;quot;, monospace; font-size: 16.8px; white-space: pre;&quot;&gt; &lt;/span&gt;&lt;span style=&quot;font-family: Consolas, &amp;quot;Courier New&amp;quot;, monospace; font-size: 16.8px; white-space: pre; color: rgb(152, 195, 121);&quot;&gt;&#39;Ярослав&#39;&lt;/span&gt;&lt;span style=&quot;color: light-dark(rgb(0, 0, 0), rgb(255, 255, 255));&quot;&gt;)&lt;/span&gt;&lt;/span&gt;" style="text;whiteSpace=wrap;html=1;align=center;" vertex="1" parent="1">
          <mxGeometry x="2720" y="210" width="190" height="40" as="geometry" />
        </mxCell>
        <mxCell id="M6zTAdS9g-BhqZ4uG254-58" value="&lt;span style=&quot;background-color: light-dark(#ffffff, var(--ge-dark-color, #121212));&quot;&gt;&lt;font style=&quot;text-wrap-mode: nowrap; font-size: 20px;&quot;&gt;π&lt;/font&gt;&lt;span style=&quot;text-wrap-mode: nowrap;&quot;&gt;(&lt;/span&gt;&lt;/span&gt;&lt;span style=&quot;color: rgb(171, 178, 191); font-family: Consolas, &amp;quot;Courier New&amp;quot;, monospace; font-size: 16.8px; white-space: pre; background-color: rgb(35, 39, 46);&quot;&gt;Н_ЛЮДИ&lt;/span&gt;&lt;span style=&quot;background-color: light-dark(#ffffff, var(--ge-dark-color, #121212));&quot;&gt;&lt;span style=&quot;color: rgb(171, 178, 191); font-family: Consolas, &amp;quot;Courier New&amp;quot;, monospace; font-size: 16.8px; white-space: pre;&quot;&gt;.&lt;/span&gt;&lt;span style=&quot;font-family: Consolas, &amp;quot;Courier New&amp;quot;, monospace; font-size: 16.8px; white-space: pre; color: rgb(209, 154, 102);&quot;&gt;ИД&lt;/span&gt;&lt;span style=&quot;color: rgb(171, 178, 191); font-family: Consolas, &amp;quot;Courier New&amp;quot;, monospace; font-size: 16.8px; white-space: pre;&quot;&gt;, &lt;/span&gt;&lt;/span&gt;&lt;span style=&quot;background-color: rgb(35, 39, 46); color: rgb(171, 178, 191); font-family: Consolas, &amp;quot;Courier New&amp;quot;, monospace; font-size: 16.8px; white-space: pre;&quot;&gt;Н_ВЕДОМОСТИ&lt;/span&gt;&lt;span style=&quot;color: rgb(171, 178, 191); font-family: Consolas, &amp;quot;Courier New&amp;quot;, monospace; font-size: 16.8px; white-space: pre;&quot;&gt;.&lt;/span&gt;&lt;span style=&quot;font-family: Consolas, &amp;quot;Courier New&amp;quot;, monospace; font-size: 16.8px; white-space: pre; color: rgb(209, 154, 102);&quot;&gt;ДАТА&lt;/span&gt;&lt;span style=&quot;color: rgb(171, 178, 191); font-family: Consolas, &amp;quot;Courier New&amp;quot;, monospace; font-size: 16.8px; white-space: pre;&quot;&gt;, &lt;/span&gt;&lt;span style=&quot;background-color: rgb(35, 39, 46); color: rgb(171, 178, 191); font-family: Consolas, &amp;quot;Courier New&amp;quot;, monospace; font-size: 16.8px; white-space: pre;&quot;&gt;Н_СЕССИЯ&lt;/span&gt;&lt;span style=&quot;background-color: transparent; color: rgb(171, 178, 191); font-family: Consolas, &amp;quot;Courier New&amp;quot;, monospace; font-size: 16.8px; white-space: pre;&quot;&gt;.&lt;/span&gt;&lt;span style=&quot;background-color: transparent; font-family: Consolas, &amp;quot;Courier New&amp;quot;, monospace; font-size: 16.8px; white-space: pre; color: rgb(209, 154, 102);&quot;&gt;УЧГОД&lt;/span&gt;&lt;span style=&quot;background-color: transparent; color: light-dark(rgb(0, 0, 0), rgb(255, 255, 255)); font-family: Consolas, &amp;quot;Courier New&amp;quot;, monospace; font-size: 16.8px; white-space: pre;&quot;&gt;)&lt;/span&gt;" style="text;whiteSpace=wrap;html=1;align=center;" vertex="1" parent="1">
          <mxGeometry x="2561.25" y="130" width="507.5" height="40" as="geometry" />
        </mxCell>
        <mxCell id="M6zTAdS9g-BhqZ4uG254-77" style="edgeStyle=orthogonalEdgeStyle;rounded=0;orthogonalLoop=1;jettySize=auto;html=1;entryX=0.5;entryY=1;entryDx=0;entryDy=0;" edge="1" parent="1" source="M6zTAdS9g-BhqZ4uG254-78" target="M6zTAdS9g-BhqZ4uG254-82">
          <mxGeometry relative="1" as="geometry">
            <Array as="points">
              <mxPoint x="2814.5" y="1281" />
              <mxPoint x="2632.5" y="1281" />
            </Array>
          </mxGeometry>
        </mxCell>
        <mxCell id="M6zTAdS9g-BhqZ4uG254-78" value="&lt;span&gt;&lt;font style=&quot;font-size: 20px;&quot;&gt;φ&lt;/font&gt;(&lt;span style=&quot;font-family: Consolas, &amp;quot;Courier New&amp;quot;, monospace; font-size: 16.8px; white-space: pre; color: rgb(209, 154, 102);&quot;&gt;ЧЛВК_ИД&lt;/span&gt;&lt;span style=&quot;color: rgb(171, 178, 191); font-family: Consolas, &amp;quot;Courier New&amp;quot;, monospace; font-size: 16.8px; white-space: pre;&quot;&gt; &lt;/span&gt;&lt;span style=&quot;font-family: Consolas, &amp;quot;Courier New&amp;quot;, monospace; font-size: 16.8px; white-space: pre; color: rgb(86, 182, 194);&quot;&gt;=&lt;/span&gt;&lt;span style=&quot;color: rgb(171, 178, 191); font-family: Consolas, &amp;quot;Courier New&amp;quot;, monospace; font-size: 16.8px; white-space: pre;&quot;&gt; &lt;/span&gt;&lt;span style=&quot;font-family: Consolas, &amp;quot;Courier New&amp;quot;, monospace; font-size: 16.8px; white-space: pre; color: rgb(209, 154, 102);&quot;&gt;105590&lt;/span&gt;&lt;span style=&quot;color: light-dark(rgb(0, 0, 0), rgb(255, 255, 255));&quot;&gt;)&lt;/span&gt;&lt;/span&gt;" style="text;whiteSpace=wrap;html=1;align=center;" vertex="1" parent="1">
          <mxGeometry x="2715" y="1311" width="200" height="40" as="geometry" />
        </mxCell>
        <mxCell id="M6zTAdS9g-BhqZ4uG254-79" style="edgeStyle=orthogonalEdgeStyle;rounded=0;orthogonalLoop=1;jettySize=auto;html=1;entryX=0.5;entryY=1;entryDx=0;entryDy=0;align=center;" edge="1" parent="1" source="M6zTAdS9g-BhqZ4uG254-80" target="M6zTAdS9g-BhqZ4uG254-78">
          <mxGeometry relative="1" as="geometry" />
        </mxCell>
        <mxCell id="M6zTAdS9g-BhqZ4uG254-80" value="&lt;div style=&quot;color: rgb(171, 178, 191); background-color: rgb(35, 39, 46); font-family: Consolas, &amp;quot;Courier New&amp;quot;, monospace; font-size: 16.8px; line-height: 22px; white-space-collapse: preserve;&quot;&gt;Н_ВЕДОМОСТИ&lt;/div&gt;" style="text;html=1;align=center;verticalAlign=middle;resizable=0;points=[];autosize=1;strokeColor=none;fillColor=none;" vertex="1" parent="1">
          <mxGeometry x="2750" y="1391" width="130" height="40" as="geometry" />
        </mxCell>
        <mxCell id="M6zTAdS9g-BhqZ4uG254-81" style="edgeStyle=orthogonalEdgeStyle;rounded=0;orthogonalLoop=1;jettySize=auto;html=1;entryX=0.5;entryY=1;entryDx=0;entryDy=0;" edge="1" parent="1" source="M6zTAdS9g-BhqZ4uG254-82" target="M6zTAdS9g-BhqZ4uG254-88">
          <mxGeometry relative="1" as="geometry" />
        </mxCell>
        <mxCell id="M6zTAdS9g-BhqZ4uG254-82" value="&lt;span&gt;&lt;font style=&quot;font-size: 20px;&quot;&gt;⋈&lt;/font&gt;&lt;font style=&quot;&quot;&gt;(&lt;/font&gt;&lt;span style=&quot;background-color: rgb(35, 39, 46); color: rgb(171, 178, 191); font-family: Consolas, &amp;quot;Courier New&amp;quot;, monospace; font-size: 16.8px; white-space: pre;&quot;&gt;Н_ЛЮДИ&lt;/span&gt;&lt;/span&gt;&lt;span style=&quot;background-color: transparent; color: rgb(171, 178, 191); font-family: Consolas, &amp;quot;Courier New&amp;quot;, monospace; font-size: 16.8px; white-space: pre;&quot;&gt;.&lt;/span&gt;&lt;span style=&quot;background-color: transparent; font-family: Consolas, &amp;quot;Courier New&amp;quot;, monospace; font-size: 16.8px; white-space: pre; color: rgb(209, 154, 102);&quot;&gt;ИД&lt;/span&gt;&lt;span style=&quot;background-color: transparent; color: rgb(171, 178, 191); font-family: Consolas, &amp;quot;Courier New&amp;quot;, monospace; font-size: 16.8px; white-space: pre;&quot;&gt; &lt;/span&gt;&lt;span style=&quot;background-color: transparent; font-family: Consolas, &amp;quot;Courier New&amp;quot;, monospace; font-size: 16.8px; white-space: pre; color: rgb(86, 182, 194);&quot;&gt;=&lt;/span&gt;&lt;span style=&quot;background-color: transparent; color: rgb(171, 178, 191); font-family: Consolas, &amp;quot;Courier New&amp;quot;, monospace; font-size: 16.8px; white-space: pre;&quot;&gt; &lt;/span&gt;&lt;span style=&quot;background-color: rgb(35, 39, 46); color: rgb(171, 178, 191); font-family: Consolas, &amp;quot;Courier New&amp;quot;, monospace; font-size: 16.8px; white-space: pre;&quot;&gt;Н_ВЕДОМОСТИ&lt;/span&gt;&lt;span style=&quot;background-color: transparent; color: rgb(171, 178, 191); font-family: Consolas, &amp;quot;Courier New&amp;quot;, monospace; font-size: 16.8px; white-space: pre;&quot;&gt;.&lt;/span&gt;&lt;span style=&quot;background-color: transparent; font-family: Consolas, &amp;quot;Courier New&amp;quot;, monospace; font-size: 16.8px; white-space: pre; color: rgb(209, 154, 102);&quot;&gt;ЧЛВК_ИД&lt;/span&gt;&lt;span style=&quot;background-color: transparent; color: light-dark(rgb(0, 0, 0), rgb(255, 255, 255));&quot;&gt;)&lt;/span&gt;" style="text;whiteSpace=wrap;html=1;align=center;" vertex="1" parent="1">
          <mxGeometry x="2430" y="1191" width="405" height="40" as="geometry" />
        </mxCell>
        <mxCell id="M6zTAdS9g-BhqZ4uG254-93" style="edgeStyle=orthogonalEdgeStyle;rounded=0;orthogonalLoop=1;jettySize=auto;html=1;entryX=0.5;entryY=1;entryDx=0;entryDy=0;" edge="1" parent="1" source="M6zTAdS9g-BhqZ4uG254-86" target="M6zTAdS9g-BhqZ4uG254-82">
          <mxGeometry relative="1" as="geometry">
            <Array as="points">
              <mxPoint x="2475.5" y="1281" />
              <mxPoint x="2632.5" y="1281" />
            </Array>
          </mxGeometry>
        </mxCell>
        <mxCell id="M6zTAdS9g-BhqZ4uG254-86" value="&lt;div style=&quot;color: rgb(171, 178, 191); background-color: rgb(35, 39, 46); font-family: Consolas, &amp;quot;Courier New&amp;quot;, monospace; font-size: 16.8px; line-height: 22px; white-space-collapse: preserve;&quot;&gt;&lt;div style=&quot;line-height: 22px;&quot;&gt;&lt;div style=&quot;line-height: 22px;&quot;&gt;Н_ЛЮДИ&lt;/div&gt;&lt;/div&gt;&lt;/div&gt;" style="text;html=1;align=center;verticalAlign=middle;resizable=0;points=[];autosize=1;strokeColor=none;fillColor=none;" vertex="1" parent="1">
          <mxGeometry x="2439" y="1318" width="73" height="34" as="geometry" />
        </mxCell>
        <mxCell id="M6zTAdS9g-BhqZ4uG254-96" style="edgeStyle=orthogonalEdgeStyle;rounded=0;orthogonalLoop=1;jettySize=auto;html=1;entryX=0.5;entryY=1;entryDx=0;entryDy=0;" edge="1" parent="1" source="M6zTAdS9g-BhqZ4uG254-88" target="M6zTAdS9g-BhqZ4uG254-94">
          <mxGeometry relative="1" as="geometry" />
        </mxCell>
        <mxCell id="M6zTAdS9g-BhqZ4uG254-88" value="&lt;span&gt;&lt;font style=&quot;font-size: 20px;&quot;&gt;⋈&lt;/font&gt;&lt;font style=&quot;&quot;&gt;(&lt;/font&gt;&lt;/span&gt;&lt;span style=&quot;color: rgb(171, 178, 191); font-family: Consolas, &amp;quot;Courier New&amp;quot;, monospace; font-size: 16.8px; white-space: pre; background-color: rgb(35, 39, 46);&quot;&gt;Н_ВЕДОМОСТИ&lt;/span&gt;&lt;span&gt;&lt;span style=&quot;color: rgb(171, 178, 191); font-family: Consolas, &amp;quot;Courier New&amp;quot;, monospace; font-size: 16.8px; white-space: pre;&quot;&gt;.&lt;/span&gt;&lt;span style=&quot;font-family: Consolas, &amp;quot;Courier New&amp;quot;, monospace; font-size: 16.8px; white-space: pre; color: rgb(209, 154, 102);&quot;&gt;ЧЛВК_ИД&lt;/span&gt;&lt;span style=&quot;color: rgb(171, 178, 191); font-family: Consolas, &amp;quot;Courier New&amp;quot;, monospace; font-size: 16.8px; white-space: pre;&quot;&gt; &lt;/span&gt;&lt;span style=&quot;font-family: Consolas, &amp;quot;Courier New&amp;quot;, monospace; font-size: 16.8px; white-space: pre; color: rgb(86, 182, 194);&quot;&gt;=&lt;/span&gt;&lt;span style=&quot;color: rgb(171, 178, 191); font-family: Consolas, &amp;quot;Courier New&amp;quot;, monospace; font-size: 16.8px; white-space: pre;&quot;&gt; &lt;/span&gt;&lt;/span&gt;&lt;span style=&quot;background-color: rgb(35, 39, 46); color: rgb(171, 178, 191); font-family: Consolas, &amp;quot;Courier New&amp;quot;, monospace; font-size: 16.8px; white-space: pre;&quot;&gt;Н_СЕССИЯ&lt;/span&gt;&lt;span style=&quot;background-color: transparent; color: rgb(171, 178, 191); font-family: Consolas, &amp;quot;Courier New&amp;quot;, monospace; font-size: 16.8px; white-space: pre;&quot;&gt;.&lt;/span&gt;&lt;span style=&quot;background-color: transparent; font-family: Consolas, &amp;quot;Courier New&amp;quot;, monospace; font-size: 16.8px; white-space: pre; color: rgb(209, 154, 102);&quot;&gt;ЧЛВК_ИД&lt;/span&gt;&lt;span style=&quot;background-color: transparent; color: light-dark(rgb(0, 0, 0), rgb(255, 255, 255));&quot;&gt;)&lt;/span&gt;" style="text;whiteSpace=wrap;html=1;align=center;" vertex="1" parent="1">
          <mxGeometry x="2612.5" y="1051" width="405" height="40" as="geometry" />
        </mxCell>
        <mxCell id="M6zTAdS9g-BhqZ4uG254-89" style="edgeStyle=orthogonalEdgeStyle;rounded=0;orthogonalLoop=1;jettySize=auto;html=1;entryX=0.5;entryY=1;entryDx=0;entryDy=0;" edge="1" parent="1" source="M6zTAdS9g-BhqZ4uG254-90" target="M6zTAdS9g-BhqZ4uG254-88">
          <mxGeometry relative="1" as="geometry" />
        </mxCell>
        <mxCell id="M6zTAdS9g-BhqZ4uG254-90" value="&lt;div style=&quot;color: rgb(171, 178, 191); background-color: rgb(35, 39, 46); font-family: Consolas, &amp;quot;Courier New&amp;quot;, monospace; font-size: 16.8px; line-height: 22px; white-space-collapse: preserve;&quot;&gt;&lt;div style=&quot;line-height: 22px;&quot;&gt;Н_СЕССИЯ&lt;/div&gt;&lt;/div&gt;" style="text;html=1;align=center;verticalAlign=middle;resizable=0;points=[];autosize=1;strokeColor=none;fillColor=none;" vertex="1" parent="1">
          <mxGeometry x="2927" y="1191" width="100" height="40" as="geometry" />
        </mxCell>
        <mxCell id="M6zTAdS9g-BhqZ4uG254-91" value="&lt;span style=&quot;background-color: light-dark(#ffffff, var(--ge-dark-color, #121212));&quot;&gt;&lt;font style=&quot;text-wrap-mode: nowrap; font-size: 20px;&quot;&gt;π&lt;/font&gt;&lt;span style=&quot;text-wrap-mode: nowrap;&quot;&gt;(&lt;/span&gt;&lt;/span&gt;&lt;span style=&quot;color: rgb(171, 178, 191); font-family: Consolas, &amp;quot;Courier New&amp;quot;, monospace; font-size: 16.8px; white-space: pre; background-color: rgb(35, 39, 46);&quot;&gt;Н_ЛЮДИ&lt;/span&gt;&lt;span style=&quot;background-color: light-dark(#ffffff, var(--ge-dark-color, #121212));&quot;&gt;&lt;span style=&quot;color: rgb(171, 178, 191); font-family: Consolas, &amp;quot;Courier New&amp;quot;, monospace; font-size: 16.8px; white-space: pre;&quot;&gt;.&lt;/span&gt;&lt;span style=&quot;font-family: Consolas, &amp;quot;Courier New&amp;quot;, monospace; font-size: 16.8px; white-space: pre; color: rgb(209, 154, 102);&quot;&gt;ИД&lt;/span&gt;&lt;span style=&quot;color: rgb(171, 178, 191); font-family: Consolas, &amp;quot;Courier New&amp;quot;, monospace; font-size: 16.8px; white-space: pre;&quot;&gt;, &lt;/span&gt;&lt;/span&gt;&lt;span style=&quot;background-color: rgb(35, 39, 46); color: rgb(171, 178, 191); font-family: Consolas, &amp;quot;Courier New&amp;quot;, monospace; font-size: 16.8px; white-space: pre;&quot;&gt;Н_ВЕДОМОСТИ&lt;/span&gt;&lt;span style=&quot;color: rgb(171, 178, 191); font-family: Consolas, &amp;quot;Courier New&amp;quot;, monospace; font-size: 16.8px; white-space: pre;&quot;&gt;.&lt;/span&gt;&lt;span style=&quot;font-family: Consolas, &amp;quot;Courier New&amp;quot;, monospace; font-size: 16.8px; white-space: pre; color: rgb(209, 154, 102);&quot;&gt;ДАТА&lt;/span&gt;&lt;span style=&quot;color: rgb(171, 178, 191); font-family: Consolas, &amp;quot;Courier New&amp;quot;, monospace; font-size: 16.8px; white-space: pre;&quot;&gt;, &lt;/span&gt;&lt;span style=&quot;background-color: rgb(35, 39, 46); color: rgb(171, 178, 191); font-family: Consolas, &amp;quot;Courier New&amp;quot;, monospace; font-size: 16.8px; white-space: pre;&quot;&gt;Н_СЕССИЯ&lt;/span&gt;&lt;span style=&quot;background-color: transparent; color: rgb(171, 178, 191); font-family: Consolas, &amp;quot;Courier New&amp;quot;, monospace; font-size: 16.8px; white-space: pre;&quot;&gt;.&lt;/span&gt;&lt;span style=&quot;background-color: transparent; font-family: Consolas, &amp;quot;Courier New&amp;quot;, monospace; font-size: 16.8px; white-space: pre; color: rgb(209, 154, 102);&quot;&gt;УЧГОД&lt;/span&gt;&lt;span style=&quot;background-color: transparent; color: light-dark(rgb(0, 0, 0), rgb(255, 255, 255)); font-family: Consolas, &amp;quot;Courier New&amp;quot;, monospace; font-size: 16.8px; white-space: pre;&quot;&gt;)&lt;/span&gt;" style="text;whiteSpace=wrap;html=1;align=center;" vertex="1" parent="1">
          <mxGeometry x="2561.25" y="881" width="507.5" height="40" as="geometry" />
        </mxCell>
        <mxCell id="M6zTAdS9g-BhqZ4uG254-95" style="edgeStyle=orthogonalEdgeStyle;rounded=0;orthogonalLoop=1;jettySize=auto;html=1;entryX=0.5;entryY=1;entryDx=0;entryDy=0;" edge="1" parent="1" source="M6zTAdS9g-BhqZ4uG254-94" target="M6zTAdS9g-BhqZ4uG254-91">
          <mxGeometry relative="1" as="geometry" />
        </mxCell>
        <mxCell id="M6zTAdS9g-BhqZ4uG254-94" value="&lt;span&gt;&lt;font style=&quot;font-size: 20px;&quot;&gt;φ&lt;/font&gt;(&lt;/span&gt;&lt;span style=&quot;color: rgb(171, 178, 191); font-family: Consolas, &amp;quot;Courier New&amp;quot;, monospace; font-size: 16.8px; white-space: pre;&quot;&gt;&lt;span style=&quot;background-color: rgb(35, 39, 46);&quot;&gt;Н_ЛЮДИ&lt;/span&gt;.&lt;/span&gt;&lt;span style=&quot;font-family: Consolas, &amp;quot;Courier New&amp;quot;, monospace; font-size: 16.8px; white-space: pre; color: rgb(209, 154, 102);&quot;&gt;ИМЯ &lt;/span&gt;&lt;span&gt;&lt;span style=&quot;font-family: Consolas, &amp;quot;Courier New&amp;quot;, monospace; font-size: 16.8px; white-space: pre; color: rgb(86, 182, 194);&quot;&gt;=&lt;/span&gt;&lt;span style=&quot;color: rgb(171, 178, 191); font-family: Consolas, &amp;quot;Courier New&amp;quot;, monospace; font-size: 16.8px; white-space: pre;&quot;&gt; &lt;/span&gt;&lt;span style=&quot;font-family: Consolas, &amp;quot;Courier New&amp;quot;, monospace; font-size: 16.8px; white-space: pre; color: rgb(152, 195, 121);&quot;&gt;&#39;Ярослав&#39;&lt;/span&gt;&lt;span style=&quot;color: light-dark(rgb(0, 0, 0), rgb(255, 255, 255));&quot;&gt;)&lt;/span&gt;&lt;/span&gt;" style="text;whiteSpace=wrap;html=1;align=center;" vertex="1" parent="1">
          <mxGeometry x="2720" y="961" width="190" height="40" as="geometry" />
        </mxCell>
      </root>
    </mxGraphModel>
  </diagram>
</mxfile>
